
<svg version="1.0" xmlns="http://www.w3.org/2000/svg"
 width="166.000000pt" height="140.000000pt" viewBox="0 0 166.000000 140.000000"
 preserveAspectRatio="xMidYMid meet">

<g transform="translate(0.000000,140.000000) scale(0.100000,-0.100000)"
fill="#000000" stroke="none">
<path d="M674 1280 c-98 -25 -137 -43 -209 -95 -86 -61 -141 -126 -186 -220
-99 -205 -85 -424 40 -602 65 -93 129 -148 226 -194 154 -75 292 -85 450 -35
203 65 355 238 401 456 53 251 -85 528 -318 640 -143 69 -272 85 -404 50z
m279 -55 c89 -23 156 -62 230 -133 117 -113 167 -229 167 -385 0 -160 -42
-267 -149 -381 -116 -121 -244 -171 -422 -164 -101 4 -112 7 -194 46 -148 71
-261 203 -300 353 -17 63 -19 204 -4 269 18 80 68 169 136 240 111 119 224
168 383 169 55 1 120 -5 153 -14z"/>
<path d="M500 900 c0 -26 86 -387 100 -417 9 -23 12 -23 209 -23 181 0 201 2
209 18 18 33 104 412 98 428 -5 13 -9 14 -21 4 -8 -7 -15 -21 -15 -31 0 -28
-14 -30 -55 -8 -49 26 -101 26 -153 0 -51 -26 -72 -26 -125 -1 -55 27 -103 27
-155 1 l-42 -21 -14 35 c-16 39 -36 47 -36 15z m232 -61 c52 -27 104 -26 157
0 22 12 49 21 61 21 34 0 109 -43 110 -63 0 -16 -25 -123 -61 -259 l-10 -38
-179 0 -179 0 -10 38 c-23 84 -63 273 -60 276 16 15 88 45 107 46 12 0 41 -10
64 -21z"/>
</g>
</svg>
