<svg version="1.0" xmlns="http://www.w3.org/2000/svg"
 width="160.000000pt" height="130.000000pt" viewBox="0 0 160.000000 130.000000"
 preserveAspectRatio="xMidYMid meet">

<g transform="translate(0.000000,130.000000) scale(0.100000,-0.100000)"
fill="#000000" stroke="none">
<path d="M660 1224 c-225 -48 -402 -220 -460 -450 -31 -122 -23 -226 27 -354
56 -141 150 -243 287 -310 140 -69 264 -85 400 -50 178 45 319 157 395 310 92
188 92 352 0 540 -79 159 -234 277 -414 315 -86 18 -150 18 -235 -1z m289 -69
c91 -31 131 -55 203 -123 116 -110 168 -232 168 -392 0 -160 -52 -282 -168
-392 -72 -68 -112 -92 -203 -123 -145 -50 -331 -27 -459 55 -54 35 -145 128
-178 182 -96 157 -96 400 0 556 31 52 115 139 168 175 125 87 321 113 469 62z"/>
<path d="M532 888 c-17 -17 -17 -479 0 -496 17 -17 479 -17 496 0 17 17 17
479 0 496 -17 17 -479 17 -496 0z m468 -248 l0 -220 -220 0 -220 0 0 220 0
220 220 0 220 0 0 -220z"/>
</g>
</svg>
