<svg version="1.0" xmlns="http://www.w3.org/2000/svg"
 width="166.000000pt" height="134.000000pt" viewBox="0 0 166.000000 134.000000"
 preserveAspectRatio="xMidYMid meet">

<g transform="translate(0.000000,134.000000) scale(0.100000,-0.100000)"
fill="#000000" stroke="none">
<path d="M667 1264 c-242 -58 -404 -222 -462 -466 -29 -125 -11 -251 56 -388
116 -236 399 -373 647 -315 262 62 436 250 474 515 20 134 -18 286 -103 411
-128 190 -394 296 -612 243z m279 -65 c90 -27 146 -60 216 -127 116 -110 168
-232 168 -392 0 -160 -52 -282 -168 -392 -110 -104 -219 -148 -368 -148 -154
0 -267 45 -376 148 -73 69 -112 129 -143 222 -47 140 -28 326 47 448 33 55
124 147 179 183 121 77 304 101 445 58z"/>
<path d="M645 900 c-15 -25 13 -30 159 -30 l154 0 5 -32 c3 -18 9 -52 12 -75
l7 -42 -169 -3 c-193 -3 -213 -11 -252 -93 -25 -54 -45 -140 -37 -160 8 -21
524 -22 532 -2 4 11 -43 327 -62 420 l-6 27 -168 0 c-102 0 -171 -4 -175 -10z
m350 -232 c7 -31 25 -150 25 -165 0 -10 -53 -13 -234 -13 l-234 0 5 23 c18 77
26 99 50 127 14 18 36 36 47 40 12 5 92 9 178 9 156 1 158 1 163 -21z"/>
</g>
</svg>
